<?xml version="1.0" encoding="iso-8859-1"?>
<!-- Generator: Adobe Illustrator 19.0.0, SVG Export Plug-In . SVG Version: 6.00 Build 0)  -->
<svg version="1.1" id="Capa_1" xmlns="http://www.w3.org/2000/svg" xmlns:xlink="http://www.w3.org/1999/xlink" x="0px" y="0px"
	 viewBox="0 0 512 512" style="enable-background:new 0 0 512 512;" xml:space="preserve">
<path style="fill:#AEAFB0;" d="M484.964,76.647l15.17,15.17c2.368,2.368,2.368,6.207,0,8.574l-13.587,13.588
	c-2.368,2.368-6.207,2.368-8.574,0l-16.22-16.22l-47.324-47.323l-16.22-16.22c-2.368-2.368-2.368-6.207,0-8.574l13.588-13.588
	c2.368-2.368,6.207-2.368,8.574,0l15.17,15.17L484.964,76.647z"/>
<path style="fill:#B57049;" d="M423.175,127.058l74.083-61.668L446.24,14.372l-61.668,74.083l0,0L250.609,212.317
	c-32.575-16.278-70.502-12.898-98.38,14.98c-8.612,8.612-15.189,18.487-19.734,29.029c-4.602,10.674-14.436,18.147-25.974,19.552
	c-24.744,3.012-48.704,13.986-67.73,32.928C-6.26,353.658-0.772,421.322,43.863,466.587c45.246,45.887,113.282,51.929,158.775,6.436
	c19.043-19.043,30.077-43.058,33.107-67.867c1.405-11.499,8.765-21.392,19.412-25.96c11.106-4.766,21.475-11.784,30.412-21.058
	c27.284-28.31,29.68-66.541,12.598-99.067L423.175,127.058L423.175,127.058z"/>
<g>
	<path style="opacity:0.2;fill:#332E2F;enable-background:new    ;" d="M401.635,105.367L276.627,237.383
		c17.081,32.525,14.685,70.756-12.598,99.067c-8.937,9.274-19.306,16.292-30.412,21.058c-10.645,4.568-18.007,14.461-19.412,25.96
		c-3.031,24.808-14.065,48.824-33.107,67.867c-41.582,41.582-101.994,40.1-146.626,4.499c2.95,3.703,6.131,7.295,9.543,10.756
		c45.246,45.887,113.282,51.929,158.775,6.436c19.043-19.043,30.077-43.058,33.107-67.867c1.405-11.499,8.765-21.392,19.412-25.96
		c11.106-4.766,21.475-11.784,30.412-21.058c27.284-28.31,29.679-66.541,12.598-99.067l125.008-132.016l74.083-61.668
		l-21.691-21.691L401.635,105.367z"/>
	<circle style="opacity:0.2;fill:#332E2F;enable-background:new    ;" cx="176.219" cy="335.41" r="52.791"/>
</g>
<path style="fill:#EBECED;" d="M120.881,449.879l-61.99-61.99c-3.922-3.922-3.922-10.341,0-14.263l0.297-0.297
	c3.922-3.922,10.341-3.922,14.263,0l61.99,61.99c3.922,3.922,3.922,10.341,0,14.263l-0.297,0.297
	C131.222,453.801,124.804,453.801,120.881,449.879z"/>
<circle style="fill:#332E2F;" cx="176.219" cy="335.41" r="29.742"/>
<g>
	<path style="fill:#FFDB4C;" d="M474.993,370.289c-5.331-2.656-11.717-4.205-18.587-4.205c-18.636,0-33.745,11.379-33.745,25.415
		c0,14.036,15.108,25.415,33.745,25.415c17.897,0,32.53-10.495,33.665-23.758c0.046-0.341,0.079-0.685,0.079-1.038L474.993,370.289z
		"/>
	<path style="fill:#FFDB4C;" d="M369.273,403.157c-5.311-2.639-11.67-4.179-18.509-4.179c-18.594,0-33.667,11.352-33.667,25.357
		s15.073,25.357,33.667,25.357s33.667-11.352,33.667-25.357c0-0.019-0.002-0.038-0.002-0.058c0-0.013,0.002-0.025,0.002-0.038
		L369.273,403.157z"/>
	<path style="fill:#FFDB4C;" d="M195.553,109.621c-5.331-2.655-11.717-4.205-18.587-4.205c-18.636,0-33.745,11.379-33.745,25.415
		c0,14.036,15.108,25.415,33.745,25.415c17.896,0,32.53-10.494,33.665-23.757c0.046-0.341,0.079-0.685,0.079-1.038L195.553,109.621z
		"/>
	<path style="fill:#FFDB4C;" d="M89.834,142.489c-5.311-2.639-11.67-4.179-18.509-4.179c-18.594,0-33.667,11.352-33.667,25.357
		c0,14.004,15.073,25.357,33.667,25.357s33.667-11.352,33.667-25.357c0-0.019-0.002-0.038-0.002-0.057
		c0-0.013,0.002-0.025,0.002-0.038L89.834,142.489z"/>
</g>
<path d="M218.913,378.1C218.914,378.1,218.914,378.1,218.913,378.1c23.54-23.541,23.54-61.843,0-85.384
	c-23.54-23.54-61.843-23.539-85.383,0.001c-23.539,23.54-23.539,61.842,0.001,85.383c11.769,11.769,27.23,17.654,42.69,17.654
	C191.683,395.754,207.144,389.869,218.913,378.1z M144.249,303.435c8.817-8.816,20.394-13.222,31.975-13.222
	c11.577,0,23.159,4.408,31.973,13.221c17.629,17.63,17.629,46.317,0.001,63.946c-17.63,17.628-46.316,17.629-63.946,0.001
	C126.62,349.751,126.62,321.064,144.249,303.435z"/>
<path d="M66.319,362.809c-4.727,0-9.163,1.833-12.49,5.161l-0.297,0.297c-3.328,3.329-5.16,7.765-5.16,12.49
	c0,4.725,1.832,9.162,5.16,12.49l61.991,61.991c3.329,3.328,7.765,5.16,12.49,5.16c4.725,0,9.162-1.832,12.49-5.16l0.296-0.297
	c3.329-3.328,5.162-7.764,5.162-12.49s-1.833-9.163-5.161-12.49l-61.991-61.99C75.482,364.642,71.046,362.809,66.319,362.809z
	 M130.803,442.452c0,0.392-0.094,1.144-0.723,1.771l-0.297,0.297c-0.959,0.961-2.584,0.961-3.543,0l-61.99-61.991
	c-0.961-0.96-0.961-2.583,0-3.543l0.297-0.298c0.628-0.628,1.379-0.721,1.771-0.721s1.144,0.094,1.771,0.723l61.992,61.991
	C130.709,441.308,130.803,442.059,130.803,442.452z"/>
<path d="M202.614,361.798c14.551-14.552,14.551-38.229,0-52.78c-7.05-7.05-16.422-10.931-26.39-10.931
	c-9.969,0-19.342,3.883-26.389,10.931c-7.051,7.05-10.932,16.421-10.932,26.389c0,9.969,3.883,19.342,10.931,26.389
	c7.05,7.051,16.421,10.932,26.39,10.932C186.191,372.729,195.564,368.848,202.614,361.798z M154.059,335.408
	c0-5.919,2.306-11.485,6.493-15.672c4.186-4.186,9.751-6.492,15.671-6.492c5.921,0,11.485,2.306,15.672,6.493
	c8.642,8.641,8.642,22.701,0,31.342c-4.187,4.187-9.751,6.493-15.672,6.493c-5.921,0-11.486-2.306-15.673-6.493
	C156.365,346.894,154.059,341.327,154.059,335.408z"/>
<path d="M509.78,90.746l-14.145-14.145l6.471-5.386c1.637-1.363,2.626-3.352,2.722-5.48c0.096-2.128-0.705-4.198-2.211-5.706
	l-16.244-16.244c-0.077-0.092-0.148-0.187-0.23-0.276c-0.23-0.251-0.478-0.474-0.733-0.686L451.599,9.012
	c-1.506-1.505-3.563-2.304-5.706-2.211c-2.127,0.097-4.117,1.085-5.48,2.722l-5.385,6.469L421.443,2.406
	c-2.961-2.959-7.759-2.959-10.719,0l-22.162,22.162c-2.96,2.961-2.96,7.759,0,10.719l16.593,16.593l-26.091,31.344L249.199,203.298
	c-8.258-3.625-16.782-6.112-25.411-7.377c-4.143-0.598-7.991,2.258-8.599,6.4s2.258,7.991,6.4,8.599
	c5.138,0.753,10.242,2.03,15.267,3.791l-16.073,14.861c-1.514,1.4-2.392,3.355-2.432,5.417c-0.039,2.061,0.761,4.049,2.218,5.507
	l48.747,48.747c1.423,1.422,3.35,2.219,5.36,2.219c0.034,0,0.069,0,0.104-0.001c2.045-0.027,3.993-0.881,5.4-2.367l15.735-16.617
	c10.878,28.555,5.204,58.607-15.803,80.404c-8.026,8.328-17.428,14.84-27.943,19.351c-13.042,5.595-22.218,17.859-23.947,32.006
	c-2.957,24.208-13.656,46.14-30.943,63.427c-18.97,18.97-42.59,28.99-68.331,28.989c-0.115,0-0.234,0-0.35-0.001
	c-28.761-0.101-56.937-12.668-79.338-35.386C6.089,417.485,3.887,354.25,44.139,314.178c17.27-17.195,39.158-27.836,63.298-30.774
	c14.086-1.716,26.354-10.941,32.018-24.076c4.293-9.958,10.393-18.929,18.133-26.669c10.311-10.312,22.249-17.194,35.481-20.456
	c4.063-1.002,6.546-5.109,5.544-9.174c-1.003-4.063-5.111-6.547-9.174-5.544c-15.954,3.935-30.277,12.162-42.57,24.455
	c-9.102,9.101-16.28,19.661-21.335,31.389c-3.538,8.204-11.175,13.963-19.931,15.029c-27.522,3.35-52.476,15.481-72.161,35.079
	c-22.967,22.866-34.8,52.862-33.32,84.461c1.431,30.553,15.048,60.39,38.341,84.014c25.259,25.616,57.248,39.786,90.078,39.901
	c0.138,0.001,0.271,0.001,0.407,0.001c29.843-0.001,57.172-11.556,79.047-33.428c19.703-19.704,31.899-44.707,35.269-72.307
	c1.076-8.809,6.778-16.44,14.879-19.914c12.382-5.314,23.445-12.972,32.88-22.763c26.9-27.91,32.925-66.944,16.265-102.936
	l121.083-127.872l31.375-26.117l17.151,17.151c1.48,1.479,3.421,2.219,5.36,2.219s3.879-0.74,5.36-2.219l22.162-22.162
	C512.74,98.504,512.74,93.706,509.78,90.746z M423.643,116.807l-2.81-2.81l59.494-54.821l5.701,5.701L423.643,116.807z
	 M408.213,101.377L462.07,40.92l7.529,7.529l-59.494,54.821L408.213,101.377z M404.639,29.928l11.443-11.443l9.207,9.207
	l-10.396,12.489L404.639,29.928z M441.399,32.032c0.012-0.014,0.023-0.028,0.035-0.042l5.317-6.389l4.581,4.581L397.476,90.64
	l-2.653-2.653L441.399,32.032z M274.528,273.018l-37.666-37.666L384.367,98.969l19.685,19.685c0.079,0.094,0.151,0.191,0.234,0.282
	c0.232,0.253,0.483,0.479,0.741,0.693l7.573,7.573L274.528,273.018z M482.259,107.548l-10.812-10.812l12.49-10.396l9.765,9.766
	L482.259,107.548z"/>
<path d="M490.373,275.476c-1.778-1.44-4.11-2.001-6.344-1.524L378.31,296.418c-3.501,0.744-6.004,3.835-6.004,7.413v31.575
	c0,4.187,3.392,7.579,7.579,7.579c4.187,0,7.579-3.392,7.579-7.579v-25.438l90.561-19.244v76.711
	c-6.261-3.778-14.037-6.02-22.454-6.02c-20.654,0-37.456,13.495-37.456,30.082s16.803,30.082,37.456,30.082
	c19.475,0,35.52-11.999,37.289-27.275c0.208-0.693,0.323-1.427,0.323-2.188V281.366C493.183,279.08,492.15,276.915,490.373,275.476z
	 M455.571,406.422c-12.087,0-22.298-6.834-22.298-14.924c0-8.089,10.211-14.924,22.298-14.924c12.087,0,22.299,6.834,22.299,14.924
	C477.869,399.587,467.658,406.422,455.571,406.422z"/>
<path d="M379.884,357.571c-4.187,0-7.579,3.392-7.579,7.579v35.03c-6.234-3.722-13.951-5.928-22.298-5.928
	c-20.653,0-37.457,13.495-37.457,30.082s16.803,30.083,37.457,30.083c20.653,0,37.456-13.495,37.456-30.083
	c0-0.019-0.002-0.038-0.002-0.059c0-0.012,0.002-0.024,0.002-0.036v-59.09C387.463,360.964,384.071,357.571,379.884,357.571z
	 M350.007,439.258c-12.087,0-22.299-6.834-22.299-14.925c0-8.089,10.212-14.924,22.299-14.924c12.087,0,22.298,6.834,22.298,14.924
	C372.305,432.425,362.095,439.258,350.007,439.258z"/>
<path d="M176.131,160.912c19.474,0,35.519-11.999,37.288-27.275c0.208-0.693,0.323-1.427,0.323-2.188V20.698
	c0-2.239-0.989-4.364-2.705-5.804c-1.715-1.441-3.981-2.051-6.185-1.661l-47.883,8.403c-4.122,0.724-6.879,4.653-6.154,8.776
	c0.724,4.123,4.65,6.878,8.776,6.154l38.993-6.842v77.046c-6.261-3.778-14.036-6.02-22.453-6.02
	c-20.654,0-37.457,13.495-37.457,30.082S155.478,160.912,176.131,160.912z M176.131,115.908c12.087,0,22.298,6.834,22.298,14.924
	s-10.211,14.924-22.298,14.924c-12.087,0-22.299-6.834-22.299-14.924S164.044,115.908,176.131,115.908z"/>
<path d="M70.568,193.748c20.653,0,37.456-13.495,37.456-30.082c0-0.019-0.002-0.038-0.002-0.059c0-0.012,0.002-0.024,0.002-0.036
	V49.302l14.207-3.018c4.095-0.869,6.709-4.894,5.838-8.989c-0.869-4.095-4.895-6.712-8.989-5.838l-20.211,4.295
	c-3.501,0.744-6.004,3.835-6.004,7.413v96.349c-6.234-3.722-13.951-5.928-22.298-5.928c-20.653,0-37.457,13.495-37.457,30.082
	S49.913,193.748,70.568,193.748z M70.568,148.743c12.087,0,22.298,6.834,22.298,14.924c0,8.089-10.211,14.924-22.298,14.924
	s-22.299-6.834-22.299-14.924C48.269,155.577,58.481,148.743,70.568,148.743z"/>
<g>
</g>
<g>
</g>
<g>
</g>
<g>
</g>
<g>
</g>
<g>
</g>
<g>
</g>
<g>
</g>
<g>
</g>
<g>
</g>
<g>
</g>
<g>
</g>
<g>
</g>
<g>
</g>
<g>
</g>
</svg>
