<svg viewBox="0 0 511 511.99775" xmlns="http://www.w3.org/2000/svg"><g fill-rule="evenodd"><path d="m471.730469 85.894531 23.085937-23.089843 7.058594-7.054688-45.214844-45.214844-7.058594 7.054688-23.085937 23.089844-23.089844 23.085937-7.054687 7.054687 7.535156 7.539063 37.679688 37.679687 7.054687-7.058593zm0 0" fill="#ffcf33"/><path d="m434.050781 108.503906-30.144531-30.144531-117.757812 117.753906-63.703126 63.707031c6.996094 1.875 13.609376 5.554688 19.097657 11.042969 5.492187 5.492188 9.171875 12.105469 11.042969 19.105469zm0 0" fill="#ffcfac"/><path d="m317.484375 317.371094c24.660156-24.65625 21.003906-60.257813-1.191406-91.109375l-63.703125 63.703125c3.808594 14.242187.128906 30.066406-11.042969 41.238281-16.664063 16.664063-43.679687 16.664063-60.339844 0-16.664062-16.660156-16.664062-43.675781 0-60.339844 11.171875-11.171875 27-14.851562 41.238281-11.042969l63.703126-63.707031c-30.851563-22.195312-66.453126-25.851562-91.113282-1.191406-10.058594 10.058594-17.476562 18.359375-22.949218 25.511719-12.472657 16.308594-17.746094 19.570312-32.070313 19.570312-32.894531 0-65.660156 13.171875-90.757813 38.273438-51.050781 51.050781-51.050781 133.820312 0 184.871094 51.050782 51.050781 133.820313 51.050781 184.871094 0 25.101563-25.097657 38.273438-57.863282 38.273438-90.757813 0-14.324219 3.265625-19.59375 19.570312-32.070313 7.152344-5.472656 15.453125-12.886718 25.511719-22.949218zm-189.257813 13.894531 52.914063 52.917969-27.339844 27.339844-52.914062-52.917969zm0 0" fill="#fd4848"/><path d="m241.546875 331.203125c11.171875-11.171875 14.851563-26.996094 11.042969-41.238281-1.875-6.996094-5.554688-13.609375-11.042969-19.101563-5.492187-5.488281-12.105469-9.167969-19.101563-11.042969-14.242187-3.808593-30.066406-.128906-41.238281 11.042969-16.664062 16.664063-16.664062 43.679688 0 60.339844 16.660157 16.660156 43.675781 16.660156 60.339844 0zm0 0" fill="#53c9d8"/><path d="m100.882812 358.605469 27.339844-27.339844 52.914063 52.914063-27.339844 27.339843zm0 0" fill="#ffcf33"/></g><path d="m236.640625 445.210938-.164063.207031c-3.421874 4.332031-2.683593 10.621093 1.648438 14.046875 1.835938 1.449218 4.019531 2.152344 6.191406 2.152344 2.953125 0 5.882813-1.300782 7.855469-3.800782l.3125-.398437-7.898437-6.132813zm0 0"/><path d="m120.621094 324.761719-27.34375 27.339843c-1.875 1.875-2.925782 4.417969-2.925782 7.070313s1.050782 5.195313 2.925782 7.070313l52.917968 52.917968c1.953126 1.953125 4.511719 2.929688 7.070313 2.929688s5.117187-.976563 7.070313-2.929688l27.339843-27.339844c1.875-1.875 2.929688-4.417968 2.929688-7.070312s-1.054688-5.199219-2.929688-7.074219l-52.914062-52.914062c-3.90625-3.90625-10.238281-3.90625-14.140625 0zm32.644531 73.183593-38.773437-38.773437 13.199218-13.199219 38.773438 38.773438zm0 0"/><path d="m509.507812 64.457031-1.085937-1.085937c1.867187-1.875 2.914063-4.410156 2.914063-7.054688 0-2.652344-1.050782-5.195312-2.925782-7.070312l-45.21875-45.21875c-3.898437-3.898438-10.21875-3.902344-14.125-.011719l-1.085937-1.085937c-3.90625-3.90625-10.238281-3.90625-14.144531 0-3.90625 3.902343-3.90625 10.234374 0 14.140624l1.085937 1.085938-8.945313 8.945312-1.085937-1.085937c-3.90625-3.902344-10.238281-3.902344-14.144531 0-3.90625 3.90625-3.90625 10.238281 0 14.144531l1.085937 1.085938-8.945312 8.945312-1.085938-1.085937c-3.902343-3.90625-10.234375-3.90625-14.140625 0s-3.90625 10.238281 0 14.140625l1.085938 1.089844c-3.890625 3.90625-3.882813 10.226562.015625 14.125l.464843.464843-10.359374 10.359375c-3.90625 3.90625-3.90625 10.238282 0 14.140625 3.90625 3.90625 10.234374 3.90625 14.140624 0l10.359376-10.355469 16 16-164.15625 164.15625c-.046876-.074218-.097657-.140624-.144532-.214843-.355468-.546875-.726562-1.089844-1.105468-1.628907-.152344-.214843-.296876-.433593-.453126-.648437-.394531-.546875-.804687-1.082031-1.222656-1.613281-.160156-.199219-.308594-.40625-.46875-.605469-.421875-.519531-.859375-1.023437-1.300781-1.53125-.175781-.199219-.34375-.40625-.519531-.605469-.492188-.546875-1.003906-1.078125-1.519532-1.605468-.136718-.136719-.261718-.28125-.394531-.417969-.144531-.140625-.296875-.273438-.441406-.414063-.519531-.507812-1.042969-1.011718-1.578125-1.496094-.207031-.1875-.421875-.359374-.632812-.542968-.496094-.429688-.992188-.863282-1.503907-1.273438-.210937-.171875-.425781-.332031-.640625-.5-.519531-.40625-1.042968-.808594-1.574218-1.191406-.226563-.167969-.460938-.320312-.6875-.484375-.523438-.367187-1.050782-.726563-1.585938-1.074219-.074219-.046875-.148438-.101562-.226562-.152344l105.03125-105.035156c3.90625-3.90625 3.90625-10.238281 0-14.140625-3.90625-3.90625-10.234376-3.90625-14.140626 0l-45.757812 45.757813c-15.179688-9.441406-31.015625-14.707032-46.230469-15.289063-19.386719-.738281-36.925781 6.136719-50.6875 19.898438-10.140625 10.144531-17.933593 18.8125-23.820312 26.507812-11.53125 15.074219-14.292969 15.644531-24.125 15.644531-.003907 0-.007813 0-.011719 0-36.511719 0-71.25 14.632813-97.820312 41.199219-54.867188 54.871094-54.867188 144.148438 0 199.015625 22.992187 22.992188 53.445312 37.390625 85.75 40.546875 4.554687.445313 9.109374.664063 13.65625.664063 27.292968 0 54.230468-7.929688 77.066406-22.871094 4.621094-3.027344 5.914062-9.222656 2.890625-13.84375-3.023438-4.621094-9.222657-5.917969-13.84375-2.890625-47.5 31.085937-111.164063 24.464844-151.375-15.746094-47.070313-47.070312-47.070313-123.660156 0-170.730469 22.789062-22.792968 52.503906-35.34375 83.675781-35.34375h.011719c18.707031 0 26.746093-6.15625 40.011719-23.492187 5.34375-6.988281 12.566406-15.007813 22.078124-24.519531 17.429688-17.429688 42.363282-18.746094 68.191407-4.171875l-51.144531 51.144531c-15.945313-2.359375-32.769532 2.578125-45.019532 14.824219-20.535156 20.535156-20.535156 53.945312 0 74.484375 10.269532 10.265625 23.753906 15.398437 37.242188 15.398437 13.484375 0 26.972656-5.132812 37.242187-15.398437 12.246094-12.25 17.183594-29.078125 14.820313-45.019532l51.148437-51.148437c14.570313 25.835937 13.253907 50.765625-4.171875 68.191406-9.507812 9.503907-17.527344 16.730469-24.515625 22.078125-17.34375 13.265625-23.5 21.304688-23.5 40.011719 0 17.042969-3.941406 34.3125-11.402343 49.941406-2.378907 4.984375-.265626 10.953125 4.71875 13.332031 1.390624.664063 2.855468.980469 4.300781.980469 3.734375 0 7.316406-2.101562 9.03125-5.695312 8.734375-18.304688 13.355469-38.554688 13.351562-58.558594 0-9.832031.574219-12.59375 15.652344-24.128906 7.699219-5.894531 16.371094-13.683594 26.503906-23.820313 13.757813-13.753906 20.636719-31.28125 19.894531-50.683594-.582031-15.210937-5.84375-31.046874-15.285156-46.226562l104.886719-104.886719.464844.464844c1.875 1.875 4.417969 2.929687 7.070312 2.929687 2.644531 0 5.179688-1.050781 7.054688-2.914062l1.085937 1.085938c1.953125 1.953124 4.511719 2.929687 7.070313 2.929687 2.558593 0 5.121093-.976563 7.070312-2.929687 3.90625-3.90625 3.90625-10.238282 0-14.144532l-1.085937-1.082031 8.949218-8.949219 1.085938 1.085938c1.953125 1.953125 4.511719 2.929687 7.070312 2.929687 2.558594 0 5.117188-.976562 7.070313-2.929687 3.90625-3.902344 3.90625-10.234375 0-14.140625l-1.085937-1.085938 8.945312-8.945312 1.085938 1.085937c1.953124 1.953125 4.511718 2.929688 7.070312 2.929688s5.117188-.976563 7.070312-2.929688c3.90625-3.902344 3.90625-10.234375 0-14.140625zm-275.570312 260.242188c-12.738281 12.734375-33.460938 12.734375-46.199219 0-12.734375-12.738281-12.734375-33.460938 0-46.199219 6.371094-6.367188 14.734375-9.550781 23.101563-9.550781 3.085937 0 6.167968.4375 9.15625 1.300781.140625.042969.28125.085938.417968.128906 1.230469.375 2.441407.828125 3.628907 1.351563.28125.125.566406.25.847656.382812.261719.125.527344.257813.789063.390625.355468.179688.710937.371094 1.058593.566406.191407.109376.386719.210938.574219.320313.539062.316406 1.070312.644531 1.59375.992187.117188.078126.230469.164063.347656.242188.417969.285156.828125.578125 1.230469.882812.171875.128907.339844.261719.507813.394532.355468.277344.703124.566406 1.046874.859375.164063.136719.328126.273437.488282.417969.433594.382812.855468.78125 1.269531 1.1875.046875.042968.09375.085937.140625.132812.042969.042969.082031.085938.121094.128906.414062.417969.816406.847656 1.203125 1.285156.140625.152344.269531.3125.40625.46875.300781.351563.59375.707032.878906 1.070313.125.160156.25.324219.375.484375.3125.417969.613281.839844.910156 1.269531.070313.105469.148438.210938.21875.316407.351563.527343.679688 1.0625 1 1.605468.105469.183594.207031.371094.308594.554688.199219.355468.394531.714844.578125 1.078125.132812.257812.261719.519531.386719.78125.132812.28125.261719.566406.386719.851562.523437 1.1875.972656 2.398438 1.347656 3.628907.042968.140624.085937.277343.128906.414062 3.214844 11.082031.46875 23.542969-8.25 32.261719zm253.257812-268.382813-46.144531 46.144532-31.074219-31.074219 46.144532-46.144531zm0 0"/><path d="m357.488281 134.804688c2.554688 0 5.109375-.972657 7.0625-2.921876l.1875-.1875c3.910157-3.902343 3.921875-10.234374.019531-14.144531-3.898437-3.910156-10.230468-3.917969-14.140624-.015625l-.191407.1875c-3.910156 3.902344-3.917969 10.234375-.019531 14.144532 1.953125 1.957031 4.519531 2.9375 7.082031 2.9375zm0 0"/></svg>